<svg width="103" height="20" viewBox="0 0 103 20" fill="none" xmlns="http://www.w3.org/2000/svg">
<path d="M68.1331 8.90107V16.5451H65.2793V3.51739H68.1331V5.10058C68.7 4.04466 69.6228 3.49658 71.4697 3.49658H72.3939V6.03024H70.7773C69.14 6.03024 68.1331 6.83224 68.1331 8.90107ZM73.5056 13.2927V0.0124512H76.3594V3.51739H79.5705V6.07186H76.3594V13.2927C76.3594 14.01 76.5691 14.2847 77.2615 14.2847H79.5705V16.5437H76.5898C74.3856 16.5437 73.5042 15.5086 73.5042 13.2927H73.5056ZM36.4609 10.0416C36.4609 6.28277 39.3148 3.26347 43.2403 3.26347C46.6611 3.26347 49.159 5.39613 49.8308 8.28916H46.8294C46.3052 6.85305 45.0459 5.86096 43.2403 5.86096C40.952 5.86096 39.3782 7.61343 39.3782 10.0416C39.3782 12.4698 40.952 14.2015 43.2403 14.2015C45.0459 14.2015 46.3052 13.2094 46.8294 11.7733H49.8308C49.159 14.6663 46.6611 16.799 43.2403 16.799C39.3148 16.799 36.4609 13.7797 36.4609 10.043V10.0416ZM93.3404 3.51739H90.5072V5.26986C89.772 4.23475 88.2189 3.26347 86.3513 3.26347C82.8257 3.26347 80.1181 6.30358 80.1181 10.0416C80.1181 13.7797 82.8257 16.7976 86.3513 16.7976C88.2189 16.7976 89.772 15.8471 90.5072 14.7912V16.5437H93.3404V3.51739ZM86.8768 14.2001C84.6106 14.2001 83.0147 12.3838 83.0147 10.0402C83.0147 7.69668 84.6092 5.85957 86.8768 5.85957C89.1444 5.85957 90.7389 7.69668 90.7389 10.0402C90.7389 12.3838 89.1651 14.2001 86.8768 14.2001ZM57.2392 3.26347C53.2308 3.26347 50.5853 6.17732 50.5853 10.0416C50.5853 13.9059 53.3563 16.7976 57.2185 16.7976C60.5344 16.7976 62.802 14.8758 63.5565 12.4476H60.5758C59.9882 13.6937 58.7702 14.2847 57.3219 14.2847C55.0336 14.2847 53.5026 12.7224 53.4184 10.7382H63.7027C63.9965 6.30358 61.2047 3.26347 57.2378 3.26347H57.2392ZM60.6613 8.71098H53.5039C53.8819 6.70458 55.3936 5.65005 57.1771 5.65005C58.7509 5.65005 60.2199 6.60052 60.6613 8.71098Z" fill="#353A3F"/>
<g clip-path="url(#clip0_5079_876)">
<path d="M16.0678 13.9461C14.9002 11.9269 14.3492 9.5338 14.2644 8.32764C10.168 10.5165 8.22969 14.4741 9.9638 17.4914C11.6979 20.5203 16.0717 20.8132 20.0177 18.3353C19.012 17.6571 17.2239 15.9847 16.0717 13.95L16.0678 13.9461Z" fill="url(#paint0_linear_5079_876)"/>
<path d="M23.9617 13.9461C22.8056 15.9808 21.0176 17.6533 20.0156 18.3315C23.9617 20.8093 28.3355 20.5165 30.0696 17.4876C31.8037 14.4702 29.8615 10.5126 25.7651 8.32764C25.6842 9.52995 25.1332 11.9269 23.9617 13.9461Z" fill="url(#paint1_linear_5079_876)"/>
<path d="M20.0178 7.0828C22.3415 7.0828 24.6806 7.80342 25.7673 8.3275C25.9176 3.66469 23.4822 -0.00390625 20.0178 -0.00390625C16.5535 -0.00390625 14.118 3.66469 14.2683 8.3275C15.355 7.80342 17.6941 7.0828 20.0178 7.0828Z" fill="url(#paint2_linear_5079_876)"/>
<g opacity="0.7">
<path d="M14.2656 8.33154C14.3465 9.53386 14.8976 11.9308 16.0691 13.95C17.2252 15.9847 19.0132 17.6572 20.0151 18.3354C21.0209 17.6572 22.8051 15.9847 23.9612 13.95C25.1288 11.9308 25.6799 9.53771 25.7647 8.33154" fill="white"/>
<path d="M25.7647 8.33137C24.678 7.80729 22.3388 7.08667 20.0151 7.08667C17.6914 7.08667 15.3523 7.80729 14.2656 8.33137" fill="white"/>
</g>
</g>
<defs>
<linearGradient id="paint0_linear_5079_876" x1="9.96716" y1="17.4988" x2="17.1668" y2="13.3676" gradientUnits="userSpaceOnUse">
<stop stop-color="#0073FF"/>
<stop offset="0.46" stop-color="#00B7FF"/>
<stop offset="0.6" stop-color="#48CDFD"/>
<stop offset="0.74" stop-color="#88E1FC"/>
<stop offset="0.86" stop-color="#B8EFFB"/>
<stop offset="0.95" stop-color="#D5F8FB"/>
<stop offset="1" stop-color="#E0FCFB"/>
</linearGradient>
<linearGradient id="paint1_linear_5079_876" x1="22.8875" y1="13.3268" x2="30.0857" y2="17.4585" gradientUnits="userSpaceOnUse">
<stop stop-color="#E0FCFB"/>
<stop offset="0.05" stop-color="#D5F8FB"/>
<stop offset="0.14" stop-color="#B8EFFB"/>
<stop offset="0.26" stop-color="#88E1FC"/>
<stop offset="0.4" stop-color="#48CDFD"/>
<stop offset="0.54" stop-color="#00B7FF"/>
<stop offset="1" stop-color="#0073FF"/>
</linearGradient>
<linearGradient id="paint2_linear_5079_876" x1="20.0178" y1="8.3275" x2="20.0178" y2="-0.00390625" gradientUnits="userSpaceOnUse">
<stop stop-color="#E0FCFB"/>
<stop offset="0.05" stop-color="#D5F8FB"/>
<stop offset="0.14" stop-color="#B8EFFB"/>
<stop offset="0.26" stop-color="#88E1FC"/>
<stop offset="0.4" stop-color="#48CDFD"/>
<stop offset="0.54" stop-color="#00B7FF"/>
<stop offset="1" stop-color="#0073FF"/>
</linearGradient>
<clipPath id="clip0_5079_876">
<rect width="21.3757" height="20" fill="white" transform="translate(9.32812)"/>
</clipPath>
</defs>
</svg>
